<svg version="1.1" xmlns="http://www.w3.org/2000/svg" xmlns:xlink="http://www.w3.org/1999/xlink" width="200px" height="200px" viewBox="0,0,256,256"><g fill="none" fill-rule="nonzero" stroke="none" stroke-width="1" stroke-linecap="butt" stroke-linejoin="miter" stroke-miterlimit="10" stroke-dasharray="" stroke-dashoffset="0" font-family="none" font-weight="none" font-size="none" text-anchor="none" style="mix-blend-mode: normal"><g transform="scale(5.33333,5.33333)"><path d="M24.3,46.1l-1.3,-1.5c0,0 1,-0.9 1,-2.6c0,-0.5 -0.4,-1 -0.8,-1.5c-0.5,-0.7 -1.2,-1.7 -1.2,-2.9c0,-0.8 0.2,-1.5 0.5,-2.2c0.3,-0.7 0.5,-1.4 0.5,-2.4h2c0,1.4 -0.4,2.4 -0.6,3.1c-0.2,0.5 -0.4,1 -0.4,1.5c0,0.6 0.4,1.1 0.8,1.7c0.6,0.7 1.2,1.6 1.2,2.7c0,2.6 -1.6,4 -1.7,4.1z" fill="#b0bec5"></path><path d="M26,34h-1l-1,1l-1,-1h-1l1,-4h2z" fill="#dd0000"></path><path d="M24,31c-6.8,0 -12,-10.2 -12,-16.8c0,-6.7 5.4,-12.2 12,-12.2c6.6,0 12,5.5 12,12.2c0,6.6 -5.2,16.8 -12,16.8z" fill="#ff0000"></path><path d="M16,16.5c0,-5.8 4.7,-10.5 10.5,-10.5c0.7,0 1.3,0.1 2,0.2c-1.4,-0.8 -2.9,-1.2 -4.5,-1.2c-5,0 -9,4 -9,9c0,1.6 0.4,3.1 1.2,4.5c-0.1,-0.7 -0.2,-1.3 -0.2,-2z" fill="#fbe9e7"></path></g></g></svg>